<svg height="150" width="150" xmlns="http://www.w3.org/2000/svg"><path d="m67 .55c-26.352 2.75-49.898 20.099-60.602 44.65-6.898 15.85-8.046 34.1-3.148 50.901 6.05 20.949 21.7 38.648 41.95 47.5 15.85 6.898 34.1 8.046 50.902 3.148 25.148-7.25 44.949-27.898 51.449-53.55 10.148-40.199-14.751-81.302-55.051-90.899-8.852-2.1-16.648-2.651-25.5-1.75zm1 46.45c6.398 8.5 11.8 15.5 12 15.5s6.852-7 14.7-15.5l14.35-15.5h8.15l-1.75 1.852c-1 1.046-7.5 8.097-14.45 15.648-6.95 7.55-13.75 14.898-15.102 16.25l-2.398 2.55 18.75 24.95c10.3 13.75 18.75 25.148 18.75 25.352 0 .25-6.148.398-13.602.398l-13.648-.05-12.7-17c-8.75-11.75-12.85-16.803-13.25-16.5-.3.25-7.402 7.902-15.8 17l-15.25 16.55h-3.852c-2.148 0-3.898-.102-3.898-.25s7.95-8.852 17.648-19.3c9.653-10.45 17.653-19.2 17.75-19.348.052-.204-7.898-11.052-17.648-24.102-9.75-13-17.75-23.75-17.75-23.852 0-.097 6.148-.148 13.7-.148h13.698zm0 0"/><path d="m41.352 38.2c.199.35 12.796 17.25 27.898 37.448l27.5 36.801 6.148.051c3.801 0 6.102-.2 6-.5-.046-.25-12.597-17.148-27.796-37.5l-27.704-37h-6.198c-5.148 0-6.199.102-5.847.7zm0 0"/></svg>